<?xml version="1.0" encoding="UTF-8"?>
<svg version="1.1" xmlns="http://www.w3.org/2000/svg" width="512" height="512">
<path d="M0 0 C2.25828385 -0.0037886 4.51656537 -0.00929308 6.77484131 -0.01637268 C12.87602216 -0.03027303 18.97691929 -0.01919586 25.07808423 -0.00266147 C31.47995016 0.01124445 37.88180054 0.00472272 44.28367615 0.00120544 C55.0308088 -0.00149211 65.77780262 0.01185177 76.52490234 0.03515625 C87.55814772 0.05907816 98.59124506 0.06615634 109.62451172 0.05566406 C122.95742503 0.04300741 136.29023418 0.04557129 149.62315178 0.06132317 C154.70140115 0.06706491 159.77960096 0.06701457 164.85785103 0.06225777 C170.84241803 0.05746788 176.82678148 0.06767292 182.81130981 0.08921242 C185.00096386 0.09475283 187.19063757 0.09527098 189.38029289 0.09025955 C203.3602811 0.06228797 215.90878285 0.55045705 228.57202148 7.12670898 C229.24612061 7.4715332 229.92021973 7.81635742 230.61474609 8.17163086 C247.71998798 17.24447431 259.72115573 32.49953121 265.76733398 50.79858398 C271.46495528 71.54992048 268.32713538 91.76764807 257.78686523 110.36499023 C251.2120514 121.73411059 244.19879678 132.82534231 237.10717773 143.87670898 C233.38413658 149.68233582 229.72227121 155.52511292 226.07202148 161.37670898 C225.44956543 162.37428223 224.82710938 163.37185547 224.18579102 164.3996582 C222.92382514 166.42277881 221.66210685 168.44605388 220.40063477 170.46948242 C217.27408718 175.4826145 214.14144643 180.4919354 211.00952148 185.50170898 C210.39012695 186.49299805 209.77073242 187.48428711 209.13256836 188.50561523 C206.02273955 193.48263574 202.91083438 198.45833513 199.79467773 203.43139648 C193.25967059 213.86562169 186.76360412 224.32201078 180.32202148 234.81420898 C174.28704309 244.64214703 168.18124484 254.42091725 161.99780273 264.15600586 C159.24435522 268.49575712 156.50290062 272.84308896 153.75952148 277.18920898 C152.74394328 278.79731146 151.72832288 280.40538728 150.71264648 282.01342773 C150.28628906 282.68849365 149.85993164 283.36355957 149.4206543 284.05908203 C149.11998047 284.53514893 148.81930664 285.01121582 148.50952148 285.50170898 C152.52041165 289.05329301 152.52041165 289.05329301 157.50952148 290.50170898 C159.73087446 289.57816793 159.73087446 289.57816793 161.93920898 288.02905273 C162.80570068 287.46621582 163.67219238 286.90337891 164.56494141 286.32348633 C165.49540283 285.7016748 166.42586426 285.07986328 167.38452148 284.43920898 C169.37779939 283.13810339 171.37129508 281.83733139 173.36499023 280.53686523 C174.38512207 279.8654248 175.40525391 279.19398438 176.45629883 278.50219727 C181.17259319 275.41205526 185.93458588 272.39505256 190.69702148 269.37670898 C192.51493392 268.22208235 194.33264369 267.06713658 196.15014648 265.91186523 C197.47949219 265.06712646 197.47949219 265.06712646 198.83569336 264.20532227 C201.51751536 262.49661574 204.19360943 260.77921883 206.86889648 259.06030273 C208.56155202 257.97818889 210.25425806 256.89615405 211.94702148 255.81420898 C212.70974365 255.32098145 213.47246582 254.82775391 214.25830078 254.31958008 C223.10577792 248.68226701 232.11405601 244.66486783 242.81713867 247.0065918 C248.84941381 248.74223635 253.80941733 251.10946926 259.07202148 254.50170898 C259.84449219 254.98663818 260.61696289 255.47156738 261.4128418 255.97119141 C263.78740666 257.46774761 266.14996768 258.98161661 268.50952148 260.50170898 C269.20996582 260.9511084 269.91041016 261.40050781 270.63208008 261.86352539 C274.08613405 264.08239845 277.53076363 266.31534111 280.97045898 268.55639648 C286.08675586 271.88482554 291.23406694 275.16396333 296.38452148 278.43920898 C297.77501709 279.32370728 297.77501709 279.32370728 299.19360352 280.22607422 C304.52375056 283.6132967 309.86242072 286.98661397 315.20849609 290.34863281 C318.29621933 292.29349139 321.37710035 294.24902596 324.45727539 296.20581055 C326.345816 297.39833654 328.24438018 298.57278734 330.14624023 299.74389648 C336.23410228 303.59280312 340.93485142 307.16764448 344.50952148 313.50170898 C344.8459668 314.08049805 345.18241211 314.65928711 345.52905273 315.25561523 C348.9014934 322.38547838 348.6895175 331.66934435 346.85327148 339.18920898 C343.45618277 347.62336027 336.8156315 354.77672656 328.50952148 358.50170898 C318.00793628 361.95050544 309.17021141 360.36244601 299.50952148 355.50170898 C296.54530601 353.81142965 293.68255487 351.98604024 290.82202148 350.12670898 C290.01240967 349.60778076 289.20279785 349.08885254 288.36865234 348.55419922 C286.63875996 347.44538683 284.91035901 346.33424465 283.18334961 345.22094727 C280.49141749 343.49006834 277.79116716 341.773017 275.08764648 340.06030273 C274.17966309 339.48465576 273.27167969 338.90900879 272.33618164 338.31591797 C270.49522011 337.14926022 268.65374941 335.98340555 266.81176758 334.81835938 C262.11331111 331.83564072 257.45496398 328.80791939 252.84545898 325.68920898 C251.48408813 324.77643188 251.48408813 324.77643188 250.09521484 323.84521484 C248.36876242 322.68411312 246.65033513 321.51096104 244.94140625 320.32421875 C243.78209595 319.54776001 243.78209595 319.54776001 242.59936523 318.75561523 C241.59184204 318.06447632 241.59184204 318.06447632 240.56396484 317.359375 C237.80316897 316.20682884 236.33430587 316.6152193 233.50952148 317.50170898 C231.51618261 318.46631125 231.51618261 318.46631125 229.63842773 319.73217773 C228.54691406 320.43117188 228.54691406 320.43117188 227.43334961 321.14428711 C226.26449219 321.90902344 226.26449219 321.90902344 225.07202148 322.68920898 C223.364993 323.78686954 221.65796164 324.88452561 219.95092773 325.98217773 C219.06034668 326.55887207 218.16976563 327.13556641 217.25219727 327.72973633 C212.68737382 330.67895198 208.09708863 333.58804952 203.50952148 336.50170898 C198.06734721 339.9599068 192.62841808 343.42239507 187.20874023 346.91577148 C185.53820251 347.98613891 183.86763116 349.05645386 182.19702148 350.12670898 C181.45129883 350.61139648 180.70557617 351.09608398 179.93725586 351.59545898 C170.24696027 357.78186952 160.92962678 361.8708996 149.19702148 360.06420898 C137.05332516 356.80719629 125.7707159 347.51496231 115.50952148 340.50170898 C112.93044613 342.86767356 111.19227224 345.4039496 109.35717773 348.37670898 C108.43775391 349.8578418 108.43775391 349.8578418 107.49975586 351.36889648 C106.86360352 352.40272461 106.22745117 353.43655273 105.57202148 354.50170898 C104.33437709 356.50210315 103.09607268 358.50208908 101.85717773 360.50170898 C101.23013443 361.51475098 100.60309113 362.52779297 99.95704651 363.5715332 C97.07581719 368.20997946 94.15601976 372.82398544 91.23779297 377.43920898 C90.40870045 378.75115234 90.40870045 378.75115234 89.56285858 380.08959961 C88.21198721 382.22712189 86.86086955 384.36448805 85.50952148 386.50170898 C86.15206218 386.50501913 86.79460287 386.50832928 87.45661449 386.51173973 C103.14188715 386.59320917 118.82705578 386.68537841 134.51219463 386.78923607 C142.09762779 386.83920832 149.68305097 386.88565202 157.26855469 386.92358398 C163.88548874 386.95668171 170.50234164 386.99660885 177.11918575 387.04449904 C180.61783589 387.06958874 184.11643344 387.09142008 187.61514854 387.10505295 C191.53535885 387.12045686 195.45537474 387.15111868 199.37548828 387.18286133 C200.51629349 387.18502151 201.65709869 387.1871817 202.83247375 387.18940735 C221.48153424 387.38102682 237.17088493 391.69178793 251.07202148 404.50170898 C263.18720004 417.083672 267.4926443 432.38824114 267.50952148 449.50170898 C266.51866225 464.59880058 259.46436454 478.47748252 248.50952148 488.84545898 C237.61636078 497.86635769 225.61566672 502.65190431 211.54960632 502.64888 C210.63388928 502.65255669 209.71817223 502.65623338 208.77470618 502.66002148 C205.69891956 502.67105525 202.62316673 502.67490173 199.54736328 502.67871094 C197.34453728 502.68497606 195.14171234 502.6916229 192.93888855 502.69862366 C185.69551327 502.71966912 178.45213777 502.73002981 171.20874023 502.73999023 C168.71281231 502.74403828 166.2168845 502.74815522 163.7209568 502.75234032 C153.33329312 502.76921294 142.94563101 502.78384504 132.55795574 502.79108906 C129.86334418 502.79299876 127.16873262 502.79491912 124.47412109 502.796875 C123.46959768 502.79760061 123.46959768 502.79760061 122.44478086 502.79834088 C111.61721716 502.80662586 100.78976449 502.83193568 89.96224918 502.86445568 C78.82803948 502.89762196 67.69387582 502.9152146 56.55961543 502.9187333 C50.31549948 502.9210783 44.07155884 502.92996654 37.82748985 502.95519447 C31.94480473 502.97857707 26.06240906 502.98266748 20.17968941 502.97243309 C18.02998768 502.97194001 15.88027122 502.97819244 13.73061371 502.99198914 C-8.11560983 503.12426063 -27.21307312 499.21844168 -43.48413086 483.63354492 C-57.66904905 469.48266664 -65.76331587 451.67287527 -65.99047852 431.56420898 C-65.7535831 412.16082204 -58.44449595 391.45572642 -44.49047852 377.50170898 C-39.29232183 376.94871359 -39.29232183 376.94871359 -36.67797852 378.75170898 C-35.30779379 380.77092858 -34.82023711 382.08058664 -34.49047852 384.50170898 C-35.27563477 386.72827148 -35.27563477 386.72827148 -36.55297852 389.12670898 C-37.01704102 390.00456055 -37.48110352 390.88241211 -37.95922852 391.78686523 C-39.44057166 394.41322617 -40.97991364 396.99192689 -42.55297852 399.56420898 C-51.24555375 413.86561812 -54.03073191 429.33141265 -50.36547852 445.81420898 C-47.08432183 456.91849387 -41.70496768 465.40332567 -33.49047852 473.50170898 C-32.92586914 474.07663086 -32.36125977 474.65155273 -31.77954102 475.24389648 C-19.54716199 486.76023381 -2.7994822 489.66798535 13.33161926 489.63542175 C14.17205408 489.63768731 15.0124889 489.63995287 15.87839144 489.64228708 C18.66926749 489.64857166 21.46009427 489.64780131 24.25097656 489.64697266 C26.26236534 489.64996759 28.27375354 489.65337089 30.28514099 489.65715027 C35.73152415 489.66595998 41.17789158 489.66832709 46.62428117 489.66896605 C50.03140503 489.66967823 53.43852493 489.6718157 56.84564781 489.67446327 C68.74443184 489.68370636 80.64320469 489.68779942 92.54199219 489.68701172 C103.61357525 489.68641106 114.68510958 489.69696319 125.75668031 489.71275538 C135.27969046 489.72585219 144.80268472 489.73119472 154.3257038 489.73055631 C160.00564934 489.73030197 165.68555153 489.73311775 171.36548805 489.74373436 C176.7097433 489.75345151 182.05391406 489.75346979 187.39817238 489.74621773 C189.35239791 489.74517641 191.3066288 489.7475077 193.26084518 489.75357819 C210.70544315 489.80423048 227.25688137 489.25239109 240.94702148 476.93920898 C248.85033535 468.16908005 253.43237905 456.51451667 253.53295898 444.76342773 C252.84883587 432.03513711 247.48931604 421.00974932 238.32202148 412.25170898 C226.50648892 402.29970001 213.07001999 401.19736946 198.203125 401.26220703 C196.78781534 401.26109193 195.37250617 401.25903066 193.9571991 401.25610352 C190.93000758 401.25141105 187.90289386 401.25246971 184.87570381 401.25787926 C180.08951916 401.26552904 175.30348237 401.25479157 170.51731873 401.24067688 C156.91485933 401.20304189 143.31247017 401.18478743 129.70996094 401.19628906 C122.18181677 401.20249736 114.65391388 401.19097611 107.12582916 401.15984374 C102.36626963 401.14116902 97.60739268 401.14452397 92.84784424 401.16401136 C89.89432108 401.17087673 86.94117129 401.15697099 83.98771858 401.13706207 C82.61668827 401.13200209 81.24559588 401.13553257 79.87461472 401.14819527 C78.00639607 401.16422814 76.13797862 401.14676631 74.26979065 401.12748718 C73.2236387 401.12731944 72.17748674 401.1271517 71.09963322 401.12697887 C68.50952148 400.50170898 68.50952148 400.50170898 66.62338161 398.16132832 C65.36586377 395.15869029 65.48869783 393.55998333 66.56958008 390.51049805 C68.57782011 386.2186022 71.2154069 382.32284843 73.82202148 378.37670898 C75.0914851 376.42047826 76.3596827 374.46342547 77.62670898 372.50561523 C78.27220703 371.51190918 78.91770508 370.51820313 79.58276367 369.49438477 C83.16181925 363.93532961 86.61236431 358.29717676 90.07592773 352.66577148 C93.44080857 347.20308464 96.87013355 341.7974517 100.43530273 336.46264648 C101.74974279 334.4358449 101.74974279 334.4358449 101.50952148 331.50170898 C100.10115771 330.23345258 100.10115771 330.23345258 98.16967773 329.18920898 C97.44474121 328.75906494 96.71980469 328.3289209 95.97290039 327.88574219 C94.78446533 327.20064575 94.78446533 327.20064575 93.57202148 326.50170898 C91.91330608 325.51799081 90.25578178 324.53226188 88.59936523 323.54467773 C87.75100098 323.0411377 86.90263672 322.53759766 86.02856445 322.01879883 C80.05871258 318.42346451 74.25093615 314.57089811 68.42553711 310.74780273 C66.63655898 309.58432868 64.83464648 308.44540737 63.02514648 307.31420898 C53.4513575 301.21746774 46.95250973 295.16321276 43.82202148 284.06420898 C42.56950582 273.79358057 44.66997435 265.02650782 50.70483398 256.54467773 C56.04350219 250.50112043 63.05246222 246.92338896 71.06030273 246.16577148 C72.30166992 246.15288086 73.54303711 246.13999023 74.82202148 246.12670898 C76.0556543 246.09834961 77.28928711 246.06999023 78.56030273 246.04077148 C86.39337335 246.95501712 92.92171564 251.1324907 99.50952148 255.25170898 C100.62339233 255.93885986 100.62339233 255.93885986 101.75976562 256.63989258 C106.57926088 259.62894637 111.35908308 262.67903769 116.13061523 265.74389648 C116.69503326 266.1062439 117.25945129 266.46859131 117.8409729 266.84191895 C120.65435979 268.64930871 123.46396413 270.46206831 126.26928711 272.28198242 C127.29602539 272.94488281 128.32276367 273.6077832 129.38061523 274.29077148 C130.29770264 274.88583496 131.21479004 275.48089844 132.15966797 276.09399414 C134.52853341 277.62819016 134.52853341 277.62819016 137.50952148 278.50170898 C137.77200684 277.79030762 138.03449219 277.07890625 138.30493164 276.34594727 C139.56983633 273.35929553 141.07564427 270.75077833 142.78295898 267.99389648 C143.43659424 266.93477051 144.09022949 265.87564453 144.76367188 264.78442383 C145.47047309 263.64842638 146.17742652 262.51252362 146.88452148 261.37670898 C147.61450053 260.19798557 148.3442344 259.01911028 149.07373047 257.84008789 C154.15597531 249.63616694 159.29418674 241.46794559 164.46264648 233.31811523 C167.93940163 227.83157575 171.38147457 222.3235035 174.82202148 216.81420898 C175.45245361 215.80471191 176.08288574 214.79521484 176.73242188 213.75512695 C178.01712298 211.69758126 179.30170893 209.63996367 180.58618164 207.58227539 C183.10304967 203.5510694 185.62183943 199.52106638 188.14086914 195.49121094 C189.38941733 193.49376221 190.63778895 191.49620312 191.88598633 189.49853516 C194.99600703 184.52128876 198.10805287 179.54533136 201.22436523 174.57202148 C208.44522105 163.04272485 215.60876027 151.48030514 222.72436523 139.88574219 C226.75192095 133.33156783 230.82460491 126.80906662 234.94702148 120.31420898 C236.3593287 118.077052 237.77041115 115.8391287 239.1809082 113.60083008 C240.05788913 112.21525824 240.93963832 110.83269151 241.82641602 109.45336914 C251.02937929 95.12088535 256.88972592 79.89885966 253.82592773 62.65405273 C250.4421596 47.16781072 243.58423657 33.19532004 230.14233398 24.11108398 C213.22834209 13.55525422 195.72186851 13.35077488 176.48681641 13.35644531 C174.45719847 13.35344978 172.42758111 13.35004634 170.39796448 13.3462677 C164.90612032 13.33746426 159.41429177 13.33509115 153.92244124 13.33445191 C150.48599 13.3337394 147.04954269 13.3316013 143.61309242 13.3289547 C131.60940933 13.3197138 119.60573731 13.31561829 107.60205078 13.31640625 C96.43674078 13.3170069 85.2714791 13.30645433 74.10618132 13.29066259 C64.49905966 13.27756188 54.89195376 13.27222341 45.28482324 13.27286166 C39.55623536 13.27311587 33.82769049 13.27030687 28.09911156 13.25968361 C22.70887673 13.24995982 17.31872566 13.24995268 11.92848778 13.25720024 C9.95855588 13.25824073 7.98861864 13.25591529 6.01869583 13.24983978 C-12.56612108 13.19626687 -29.24264603 13.69987948 -43.52172852 27.30639648 C-52.59116677 37.41953993 -55.38226758 48.92659872 -54.90063477 62.23999023 C-54.04822191 74.16040952 -47.72541531 83.73364671 -39.24047852 91.75170898 C-27.70471084 101.04226013 -14.0041136 101.80153393 0.18310547 101.77294922 C1.63782541 101.77734474 3.09254284 101.78264988 4.54725647 101.78878784 C7.65956087 101.80021793 10.77179782 101.80574202 13.88412285 101.80666924 C18.8047332 101.80862044 23.72520479 101.82672683 28.64576721 101.84742737 C40.85688464 101.89645407 53.06803913 101.92755565 65.27923584 101.94873047 C74.79191845 101.96524274 84.30448038 101.98799061 93.81708199 102.03175122 C98.71027786 102.05354698 103.6032445 102.06158394 108.49648559 102.05935848 C111.5329649 102.06102163 114.56929333 102.07504602 117.60571861 102.09257126 C119.01544348 102.09818312 120.42519947 102.09864465 121.83492661 102.09363365 C123.75575533 102.08752008 125.676617 102.10143428 127.59739685 102.11643982 C129.21087084 102.11945681 129.21087084 102.11945681 130.85694027 102.12253475 C133.50952148 102.50170898 133.50952148 102.50170898 135.34680271 103.86245823 C137.27886655 106.58636463 137.01030553 108.2124683 136.50952148 111.50170898 C135.02430892 114.73273818 133.16068231 117.68857113 131.25952148 120.68920898 C130.44414917 122.01033691 130.44414917 122.01033691 129.61230469 123.3581543 C127.92565686 126.08189713 126.22008891 128.79293773 124.50952148 131.50170898 C123.52890208 133.0654166 122.5484263 134.6292143 121.56811523 136.19311523 C119.61951323 139.29227286 117.66103238 142.38495243 115.69702148 145.47436523 C112.16892845 151.02845906 108.68161093 156.60775019 105.19702148 162.18920898 C104.56691162 163.19822266 103.93680176 164.20723633 103.28759766 165.24682617 C102.0025561 167.30485082 100.71764465 169.36295671 99.43286133 171.42114258 C96.29362923 176.44917388 93.15141316 181.47533935 90.00952148 186.50170898 C89.39246338 187.48913086 88.77540527 188.47655273 88.13964844 189.49389648 C84.99090809 194.53253797 81.84106424 199.57048407 78.68920898 204.60717773 C72.77548652 214.05943905 66.87175637 223.51741184 61.00952148 233.00170898 C54.51524371 243.50856538 47.96909641 253.98265625 41.41674805 264.45336914 C38.27910586 269.46829495 35.14445015 274.48508664 32.00952148 279.50170898 C30.75953612 281.50171813 29.50953611 283.50171813 28.25952148 285.50170898 C27.33139648 286.98670898 27.33139648 286.98670898 26.38452148 288.50170898 C24.50952148 291.50170898 22.63452148 294.50170898 20.75952148 297.50170898 C20.13988525 298.49332031 19.52024902 299.48493164 18.88183594 300.5065918 C17.641491 302.49075554 16.40045164 304.47448536 15.15869141 306.45776367 C11.87991143 311.69656667 8.61630962 316.94410743 5.37280273 322.20483398 C4.69475586 323.30053711 4.01670898 324.39624023 3.31811523 325.52514648 C2.01808636 327.62656302 0.72229167 329.73060682 -0.56860352 331.83764648 C-1.15512695 332.78381836 -1.74165039 333.72999023 -2.34594727 334.70483398 C-2.85794678 335.53660156 -3.36994629 336.36836914 -3.89746094 337.2253418 C-5.58043024 339.6302469 -7.27101255 341.57967482 -9.49047852 343.50170898 C-12.66283128 343.95490224 -14.55535587 344.03161182 -17.36547852 342.43920898 C-19.1744369 339.32378065 -18.84343068 337.06688238 -18.49047852 333.50170898 C-17.12191568 330.47287919 -15.29618859 327.80598567 -13.42797852 325.06420898 C-12.31617877 323.36963252 -11.20555604 321.6742834 -10.09594727 319.97827148 C-9.50604004 319.0865625 -8.91613281 318.19485352 -8.30834961 317.27612305 C-5.20868797 312.54545493 -2.22901302 307.7405515 0.75952148 302.93920898 C1.38391113 301.94002441 2.00830078 300.94083984 2.65161133 299.91137695 C7.3681002 292.35853218 12.03792201 284.77755253 16.69702148 277.18920898 C21.74853841 268.9622801 26.8390055 260.76353439 32.0090332 252.6105957 C37.91179448 243.30140384 43.74061645 233.94610717 49.57739258 224.59545898 C51.49714921 221.52151964 53.41898407 218.44889023 55.34155273 215.37670898 C61.25173943 205.9311878 67.15127707 196.47955009 73.00952148 187.00170898 C80.13398613 175.47529612 87.32094861 163.98821167 94.50952148 152.50170898 C97.15592551 148.27289903 99.80165192 144.04366612 102.44702148 139.81420898 C103.03725098 138.87150146 103.62748047 137.92879395 104.2355957 136.95751953 C107.42011603 131.86595354 110.58533986 126.76296229 113.73046875 121.64697266 C114.09608162 121.05254112 114.46169449 120.45810959 114.83838654 119.84566498 C115.72890716 118.39776716 116.61923466 116.94975057 117.50952148 115.50170898 C116.49656147 115.50447436 116.49656147 115.50447436 115.46313763 115.50729561 C98.99420581 115.5515587 82.52529295 115.58460633 66.05631542 115.60533333 C58.09188379 115.61562442 50.12749199 115.62964309 42.16308594 115.65258789 C35.21734966 115.67258836 28.27164224 115.68544115 21.32587796 115.68988597 C17.65175222 115.69248213 13.97770901 115.69853853 10.30360985 115.7131691 C6.19146515 115.72940958 2.07946187 115.72968442 -2.03271484 115.72875977 C-3.83886513 115.73954559 -3.83886513 115.73954559 -5.6815033 115.75054932 C-23.9672906 115.70622427 -39.44439994 110.84977311 -52.96313477 98.18530273 C-58.63155624 92.28976588 -62.39510725 86.05163697 -65.49047852 78.50170898 C-65.83079102 77.67541992 -66.17110352 76.84913086 -66.52172852 75.99780273 C-70.94951628 62.8989306 -69.76640644 47.08699539 -64.49047852 34.50170898 C-64.20172852 33.77081055 -63.91297852 33.03991211 -63.61547852 32.28686523 C-57.73171257 19.02212505 -45.96021039 9.12388895 -32.91250706 3.36358547 C-22.09550494 -0.46748787 -11.34350559 -0.0544153 0 0 Z M63.63452148 264.87670898 C62.93327148 265.74295898 62.23202148 266.60920898 61.50952148 267.50170898 C60.61233398 268.55358398 60.61233398 268.55358398 59.69702148 269.62670898 C57.54852914 274.82832204 57.59726576 280.23428324 59.10717773 285.64233398 C62.55763397 292.51530754 69.9977094 296.23106447 76.31469727 300.14233398 C78.53452152 301.51719288 80.74009955 302.91259621 82.94311523 304.31420898 C86.10048584 306.32028994 89.26349905 308.31698081 92.43139648 310.30639648 C97.74112035 313.64305176 103.03269829 317.00783573 108.32202148 320.37670898 C109.68568848 321.24428833 109.68568848 321.24428833 111.0769043 322.12939453 C115.88218876 325.18741807 120.68296748 328.25227541 125.47827148 331.32592773 C126.45691162 331.95192871 127.43555176 332.57792969 128.44384766 333.22290039 C130.30219412 334.41177553 132.15922558 335.60270984 134.01464844 336.79614258 C144.95162585 344.43472148 144.95162585 344.43472148 157.50952148 347.50170898 C163.79011313 346.0023934 168.9112283 343.30883534 174.19702148 339.68920898 C175.68585284 338.69849467 177.17547642 337.70897013 178.66577148 336.72045898 C179.44952148 336.19709961 180.23327148 335.67374023 181.04077148 335.13452148 C185.38783037 332.25940975 189.79470795 329.47866642 194.19702148 326.68920898 C196.05653057 325.50843054 197.91590399 324.32743841 199.77514648 323.14624023 C200.71165039 322.55149902 201.6481543 321.95675781 202.61303711 321.34399414 C205.59677496 319.44621213 208.57699076 317.54300277 211.55639648 315.63842773 C213.03619995 314.69350464 213.03619995 314.69350464 214.54589844 313.72949219 C216.4280528 312.52746665 218.30944715 311.32424993 220.18994141 310.11962891 C221.87123323 309.04687084 223.55678123 307.98074233 225.24731445 306.92260742 C226.67031178 306.0288189 228.0827076 305.11768992 229.47875977 304.18237305 C232.30910903 302.37187877 234.00549367 301.46202477 237.40258789 301.72949219 C240.59547558 302.52307255 242.70636006 303.55230142 245.46655273 305.31811523 C246.40152588 305.90939209 247.33649902 306.50066895 248.29980469 307.10986328 C249.29713623 307.75479736 250.29446777 308.39973145 251.32202148 309.06420898 C252.37156006 309.73170166 253.42109863 310.39919434 254.50244141 311.08691406 C257.84439686 313.21555285 261.17722134 315.35799381 264.50952148 317.50170898 C266.66528271 318.8800779 268.82152562 320.25769376 270.97827148 321.63452148 C279.0268824 326.77727188 287.07057146 331.92747761 295.09545898 337.10717773 C296.79579986 338.19730223 298.49631039 339.28716216 300.19702148 340.37670898 C300.95668213 340.87066162 301.71634277 341.36461426 302.49902344 341.87353516 C308.30186462 345.57692886 313.30180288 348.28632875 320.42358398 347.09936523 C325.56334079 345.62673828 329.9736819 342.8235726 333.00952148 338.37670898 C335.61980005 333.00398315 335.50712744 327.03867554 333.90795898 321.36889648 C330.15305158 313.82855398 321.412587 309.76229273 314.50952148 305.50170898 C312.6949881 304.36615796 310.88122744 303.22937154 309.06811523 302.09155273 C305.02078702 299.55519996 300.96761357 297.02847735 296.91186523 294.50561523 C290.4746201 290.49182676 284.08174019 286.41089024 277.69702148 282.31420898 C276.66029297 281.64993896 275.62356445 280.98566895 274.55541992 280.30126953 C270.59495743 277.76353088 266.63461727 275.22563641 262.67895508 272.68041992 C260.08386822 271.01185034 257.48470766 269.34981694 254.88452148 267.68920898 C254.13323975 267.20363525 253.38195801 266.71806152 252.60791016 266.21777344 C243.54935325 260.38659442 243.54935325 260.38659442 233.11889648 259.69311523 C221.92566232 263.16167732 211.5771153 271.62572904 201.86889648 277.99780273 C194.54339819 282.80094357 187.14991013 287.49585789 179.74389648 292.17358398 C176.39398264 294.29151486 173.07318502 296.44457249 169.77514648 298.64233398 C169.04972656 299.11775635 168.32430664 299.59317871 167.5769043 300.08300781 C166.24427743 300.95720978 164.91991336 301.84420533 163.60620117 302.74658203 C160.88936238 304.50910703 158.91449441 305.48730502 155.65405273 305.60327148 C151.08443367 304.00248568 147.25663956 301.55084942 143.19702148 298.93920898 C142.28621826 298.36420654 141.37541504 297.7892041 140.43701172 297.19677734 C137.45419914 295.30916702 134.48136199 293.40653987 131.50952148 291.50170898 C129.45500085 290.19155144 127.40031176 288.88165802 125.34545898 287.57202148 C123.25406415 286.23647382 121.16291974 284.90053394 119.07202148 283.56420898 C118.03070068 282.89881104 116.98937988 282.23341309 115.91650391 281.54785156 C110.7057222 278.21157948 105.51312337 274.85177348 100.34936523 271.44311523 C99.36572998 270.80043701 98.38209473 270.15775879 97.36865234 269.49560547 C95.52233567 268.28874405 93.68274523 267.07149991 91.8515625 265.84179688 C82.18383739 259.5555828 73.17610935 256.9945277 63.63452148 264.87670898 Z " fill="#A422A3" transform="translate(116.490478515625,4.498291015625)"/>
<path d="M0 0 C2.0769872 3.1154808 2.36487127 4.2750648 1.75390625 7.88671875 C0.05256108 12.65577438 -3.41976712 17.41976712 -7 21 C-12.2969697 21.46060606 -12.2969697 21.46060606 -14.8125 19.8125 C-16.35431229 17.45920756 -16.7353696 15.8106956 -17 13 C-15.92578125 10.2109375 -15.92578125 10.2109375 -14.3125 7.375 C-13.79300781 6.43398438 -13.27351563 5.49296875 -12.73828125 4.5234375 C-9.02584375 -0.86585379 -6.37778102 -1.65349878 0 0 Z " fill="#A921A3" transform="translate(97,355)"/>
</svg>
